<svg xmlns="http://www.w3.org/2000/svg" width="60" height="52" viewBox="0 0 60 52"><path fill="#fafafa" d="m0-.0001h60v52h-60z"/><path fill="#fafafa" d="m0-.0001h60v52h-60z"/><path fill="none" stroke="#3a3a38" d="m14 37-12 12"/><path fill="#3a3a38" d="m13 37h46v.9874h-46z"/><path fill="#3a3a38" d="m13 2h1v36h-1z"/><path fill="#1e8bcd" d="m11 5c-1.656854 0-3 2.6863-3 6s1.343146 6 3 6h32a3 6 0 0 1 -3-6 3 6 0 0 1 3-6z"/><path fill="#fb983b" d="m7 10a3 6 0 0 0 -3 6 3 6 0 0 0 3 6h12a3 6 0 0 1 -3-6 3 6 0 0 1 3-6z"/><ellipse cx="11" cy="-43" fill="#1e8bcd" opacity=".8" rx="6" ry="3" transform="rotate(90)"/><ellipse cx="16" cy="-19" fill="#fb983b" opacity=".8" rx="6" ry="3" transform="rotate(90)"/><path fill="#1e8bcd" d="m11 23c-1.656854 0-3 2.6863-3 6s1.343146 6 3 6h40a3 6 0 0 1 -3-6 3 6 0 0 1 3-6z"/><path fill="#fb983b" d="m7 28c-1.6568542 0-3 2.6863-3 6s1.3431458 6 3 6h26a3 6 0 0 1 -3-6 3 6 0 0 1 3-6z"/><g transform="rotate(90)"><ellipse cx="29" cy="-51" fill="#1e8bcd" opacity=".8" rx="6" ry="3"/><ellipse cx="34" cy="-33" fill="#fb983b" opacity=".8" rx="6" ry="3"/></g></svg>