<svg xmlns="http://www.w3.org/2000/svg" viewBox="0 0 24 24"><path fill="#76a797" d="m8 12c-.554 0-1 .446-1 1v6c0 .554.446 1 1 1h3c.554 0 1-.446 1-1v-6c0-.554-.446-1-1-1zm0 1h3v6h-3z"/><rect width="4" height="14" x="11" y="6" fill="#eac282" ry="1"/><path fill="#e68497" d="m16 10c-.554 0-1 .446-1 1v8c0 .554.446 1 1 1h3c.554 0 1-.446 1-1v-8c0-.554-.446-1-1-1zm0 1h3v8h-3z"/><rect width="1" height="20" x="-20" y="-22" fill="gray" ry=".5" transform="matrix(0 -1 -1 0 0 0)"/><path fill="#fff" d="m16 11h3v8h-3z"/><path fill="#fff" d="m8 13h3v6h-3z"/><path fill="none" stroke="#76a797" stroke-linecap="round" stroke-linejoin="round" d="m4.5 10.5 8-6 4 3 5-5"/><rect width="20" height="1" x="-22" y="-5" fill="gray" ry=".5" transform="matrix(0 -1 -1 0 0 0)"/></svg>