<svg xmlns="http://www.w3.org/2000/svg" width="60" height="52" viewBox="0 0 60 52"><path fill="#fafafa" d="m0 0h60v52h-60z"/><path fill="#3a3a38" d="m3 45h52v1h-52z"/><path fill="#3a3a38" d="m6 3h1v46h-1z"/><path fill="#fafafa" d="m11 37h1v1h-1z"/><path fill="#fafafa" d="m11 22v1h-1v1h1v1h1v-1h1v-1h-1v-1z"/><path fill="none" stroke="#1e8bcd" d="m11.500402 23.5s7.054903-10.7718 12-12.0001 8.155513 4.7496 13 4 13-9 13-9"/><g fill="#1e8bcd"><path d="m10 22h3v3h-3z"/><path d="m35 14h3v3h-3z"/><path d="m48 5h3v3h-3z"/></g><g fill="#fb983b"><path d="m10 36h3v3h-3z"/><path d="m22 28h3v3h-3z"/><path d="m35 24h3v3h-3z"/><path d="m48 24h3v3h-3z"/></g><path fill="none" stroke="#fb983b" stroke-opacity=".941" d="m11.5 37.4999s7.78042-5.9968 11.999605-7.9999 8.516572-3.3259 13-4.0001c4.285157-.6444 13 0 13 0"/><path fill="#1e8bcd" d="m23.122469 9.7151h3v3h-3z"/></svg>